<svg xmlns="http://www.w3.org/2000/svg" version="1.1" xmlns:xlink="http://www.w3.org/1999/xlink" xmlns:svgjs="http://svgjs.dev/svgjs" viewBox="0 0 800 800"><defs><linearGradient x1="50%" y1="0%" x2="50%" y2="100%" id="ffflurry-grad" gradientTransform="rotate(270)"><stop stop-color="hsl(238, 82%, 13%)" stop-opacity="1" offset="0%"></stop><stop stop-color="hsl(290, 87%, 47%)" stop-opacity="1" offset="45%"></stop><stop stop-color="hsl(167, 50%, 40%)" stop-opacity="1" offset="100%"></stop></linearGradient></defs><rect width="100%" height="100%" fill="hsl(238, 82%, 13%)"></rect><g fill="url(#ffflurry-grad)"><rect width="514" height="3" x="-214" y="321.5" rx="1.5" transform="rotate(45, 43, 323)" opacity="0.66"></rect><rect width="591" height="3" x="316.5" y="121.5" rx="1.5" transform="rotate(45, 612, 123)" opacity="0.35"></rect><rect width="365" height="3" x="563.5" y="591.5" rx="1.5" transform="rotate(45, 746, 593)" opacity="0.81"></rect><rect width="234" height="3" x="235" y="371.5" rx="1.5" transform="rotate(45, 352, 373)" opacity="0.51"></rect><rect width="110" height="3" x="591" y="33.5" rx="1.5" transform="rotate(45, 646, 35)" opacity="0.44"></rect><rect width="89" height="3" x="203.5" y="54.5" rx="1.5" transform="rotate(45, 248, 56)" opacity="0.39"></rect><rect width="201" height="3" x="-13.5" y="267.5" rx="1.5" transform="rotate(45, 87, 269)" opacity="0.49"></rect><rect width="148" height="3" x="496" y="229.5" rx="1.5" transform="rotate(45, 570, 231)" opacity="0.28"></rect><rect width="378" height="3" x="234" y="642.5" rx="1.5" transform="rotate(45, 423, 644)" opacity="0.34"></rect><rect width="391" height="3" x="225.5" y="578.5" rx="1.5" transform="rotate(45, 421, 580)" opacity="0.87"></rect><rect width="213" height="3" x="297.5" y="143.5" rx="1.5" transform="rotate(45, 404, 145)" opacity="0.32"></rect><rect width="413" height="3" x="-146.5" y="201.5" rx="1.5" transform="rotate(45, 60, 203)" opacity="0.54"></rect><rect width="393" height="3" x="512.5" y="704.5" rx="1.5" transform="rotate(45, 709, 706)" opacity="0.70"></rect><rect width="507" height="3" x="-46.5" y="452.5" rx="1.5" transform="rotate(45, 207, 454)" opacity="0.61"></rect><rect width="200" height="3" x="28" y="448.5" rx="1.5" transform="rotate(45, 128, 450)" opacity="0.24"></rect><rect width="417" height="3" x="338.5" y="747.5" rx="1.5" transform="rotate(45, 547, 749)" opacity="0.56"></rect><rect width="41" height="3" x="320.5" y="484.5" rx="1.5" transform="rotate(45, 341, 486)" opacity="0.12"></rect><rect width="520" height="3" x="387" y="758.5" rx="1.5" transform="rotate(45, 647, 760)" opacity="0.91"></rect><rect width="582" height="3" x="-159" y="41.5" rx="1.5" transform="rotate(45, 132, 43)" opacity="0.26"></rect><rect width="453" height="3" x="47.5" y="491.5" rx="1.5" transform="rotate(45, 274, 493)" opacity="0.16"></rect><rect width="170" height="3" x="672" y="438.5" rx="1.5" transform="rotate(45, 757, 440)" opacity="0.47"></rect><rect width="244" height="3" x="630" y="770.5" rx="1.5" transform="rotate(45, 752, 772)" opacity="0.91"></rect><rect width="370" height="3" x="153" y="639.5" rx="1.5" transform="rotate(45, 338, 641)" opacity="0.46"></rect><rect width="178" height="3" x="171" y="645.5" rx="1.5" transform="rotate(45, 260, 647)" opacity="0.96"></rect><rect width="298" height="3" x="487" y="665.5" rx="1.5" transform="rotate(45, 636, 667)" opacity="0.85"></rect><rect width="270" height="3" x="359" y="42.5" rx="1.5" transform="rotate(45, 494, 44)" opacity="0.39"></rect><rect width="412" height="3" x="92" y="754.5" rx="1.5" transform="rotate(45, 298, 756)" opacity="0.38"></rect><rect width="177" height="3" x="15.5" y="127.5" rx="1.5" transform="rotate(45, 104, 129)" opacity="0.20"></rect><rect width="96" height="3" x="-32" y="198.5" rx="1.5" transform="rotate(45, 16, 200)" opacity="0.17"></rect><rect width="242" height="3" x="-93" y="612.5" rx="1.5" transform="rotate(45, 28, 614)" opacity="0.35"></rect><rect width="518" height="3" x="-37" y="290.5" rx="1.5" transform="rotate(45, 222, 292)" opacity="0.08"></rect><rect width="178" height="3" x="313" y="436.5" rx="1.5" transform="rotate(45, 402, 438)" opacity="0.44"></rect><rect width="256" height="3" x="644" y="693.5" rx="1.5" transform="rotate(45, 772, 695)" opacity="0.25"></rect><rect width="222" height="3" x="565" y="306.5" rx="1.5" transform="rotate(45, 676, 308)" opacity="0.89"></rect><rect width="52" height="3" x="646" y="379.5" rx="1.5" transform="rotate(45, 672, 381)" opacity="0.91"></rect><rect width="134" height="3" x="432" y="146.5" rx="1.5" transform="rotate(45, 499, 148)" opacity="0.28"></rect><rect width="477" height="3" x="229.5" y="442.5" rx="1.5" transform="rotate(45, 468, 444)" opacity="0.72"></rect><rect width="723" height="3" x="156.5" y="527.5" rx="1.5" transform="rotate(45, 518, 529)" opacity="0.69"></rect><rect width="83" height="3" x="421.5" y="720.5" rx="1.5" transform="rotate(45, 463, 722)" opacity="0.76"></rect><rect width="485" height="3" x="103.5" y="575.5" rx="1.5" transform="rotate(45, 346, 577)" opacity="0.77"></rect><rect width="227" height="3" x="185.5" y="146.5" rx="1.5" transform="rotate(45, 299, 148)" opacity="0.49"></rect><rect width="57" height="3" x="383.5" y="519.5" rx="1.5" transform="rotate(45, 412, 521)" opacity="0.86"></rect><rect width="194" height="3" x="104" y="557.5" rx="1.5" transform="rotate(45, 201, 559)" opacity="0.28"></rect><rect width="414" height="3" x="326" y="423.5" rx="1.5" transform="rotate(45, 533, 425)" opacity="0.18"></rect><rect width="558" height="3" x="362" y="562.5" rx="1.5" transform="rotate(45, 641, 564)" opacity="0.26"></rect><rect width="436" height="3" x="-8" y="164.5" rx="1.5" transform="rotate(45, 210, 166)" opacity="0.59"></rect><rect width="456" height="3" x="132" y="697.5" rx="1.5" transform="rotate(45, 360, 699)" opacity="0.69"></rect><rect width="175" height="3" x="13.5" y="608.5" rx="1.5" transform="rotate(45, 101, 610)" opacity="0.58"></rect><rect width="75" height="3" x="625.5" y="491.5" rx="1.5" transform="rotate(45, 663, 493)" opacity="0.46"></rect><rect width="324" height="3" x="67" y="725.5" rx="1.5" transform="rotate(45, 229, 727)" opacity="0.87"></rect><rect width="44" height="3" x="16" y="506.5" rx="1.5" transform="rotate(45, 38, 508)" opacity="0.11"></rect><rect width="237" height="3" x="-86.5" y="68.5" rx="1.5" transform="rotate(45, 32, 70)" opacity="0.74"></rect><rect width="429" height="3" x="239.5" y="329.5" rx="1.5" transform="rotate(45, 454, 331)" opacity="0.37"></rect><rect width="203" height="3" x="181.5" y="563.5" rx="1.5" transform="rotate(45, 283, 565)" opacity="0.91"></rect><rect width="510" height="3" x="-107" y="224.5" rx="1.5" transform="rotate(45, 148, 226)" opacity="0.66"></rect><rect width="113" height="3" x="342.5" y="767.5" rx="1.5" transform="rotate(45, 399, 769)" opacity="0.83"></rect><rect width="90" height="3" x="141" y="772.5" rx="1.5" transform="rotate(45, 186, 774)" opacity="0.94"></rect><rect width="172" height="3" x="184" y="401.5" rx="1.5" transform="rotate(45, 270, 403)" opacity="0.65"></rect><rect width="367" height="3" x="-59.5" y="742.5" rx="1.5" transform="rotate(45, 124, 744)" opacity="0.28"></rect><rect width="60" height="3" x="710" y="267.5" rx="1.5" transform="rotate(45, 740, 269)" opacity="0.24"></rect><rect width="571" height="3" x="76.5" y="49.5" rx="1.5" transform="rotate(45, 362, 51)" opacity="0.36"></rect><rect width="118" height="3" x="268" y="218.5" rx="1.5" transform="rotate(45, 327, 220)" opacity="0.75"></rect><rect width="124" height="3" x="89" y="354.5" rx="1.5" transform="rotate(45, 151, 356)" opacity="0.51"></rect><rect width="395" height="3" x="543.5" y="180.5" rx="1.5" transform="rotate(45, 741, 182)" opacity="0.88"></rect><rect width="407" height="3" x="556.5" y="42.5" rx="1.5" transform="rotate(45, 760, 44)" opacity="0.46"></rect><rect width="332" height="3" x="253" y="248.5" rx="1.5" transform="rotate(45, 419, 250)" opacity="0.35"></rect><rect width="266" height="3" x="591" y="109.5" rx="1.5" transform="rotate(45, 724, 111)" opacity="0.13"></rect><rect width="331" height="3" x="4.5" y="658.5" rx="1.5" transform="rotate(45, 170, 660)" opacity="0.36"></rect><rect width="496" height="3" x="-204" y="760.5" rx="1.5" transform="rotate(45, 44, 762)" opacity="0.91"></rect><rect width="524" height="3" x="299" y="331.5" rx="1.5" transform="rotate(45, 561, 333)" opacity="0.09"></rect><rect width="135" height="3" x="-11.5" y="687.5" rx="1.5" transform="rotate(45, 56, 689)" opacity="0.19"></rect><rect width="50" height="3" x="542" y="622.5" rx="1.5" transform="rotate(45, 567, 624)" opacity="0.47"></rect><rect width="71" height="3" x="10.5" y="408.5" rx="1.5" transform="rotate(45, 46, 410)" opacity="0.70"></rect><rect width="394" height="3" x="300" y="628.5" rx="1.5" transform="rotate(45, 497, 630)" opacity="0.72"></rect><rect width="334" height="3" x="-49" y="534.5" rx="1.5" transform="rotate(45, 118, 536)" opacity="0.83"></rect><rect width="336" height="3" x="444" y="432.5" rx="1.5" transform="rotate(45, 612, 434)" opacity="0.14"></rect><rect width="418" height="3" x="98" y="300.5" rx="1.5" transform="rotate(45, 307, 302)" opacity="0.49"></rect></g></svg>