<svg id="svg" xmlns="http://www.w3.org/2000/svg" xmlns:xlink="http://www.w3.org/1999/xlink" width="400" height="400" viewBox="0, 0, 400,400"><g id="svgg"><path id="path0" d="M190.440 1.146 C 185.176 3.145,181.090 6.683,162.504 25.334 L 144.149 43.755 167.290 66.896 L 190.432 90.038 195.639 89.131 C 216.015 85.583,234.275 103.799,230.559 123.968 L 229.595 129.200 251.740 151.346 L 273.886 173.492 278.115 172.585 C 307.036 166.383,326.147 201.948,305.305 223.186 C 284.292 244.601,247.046 223.393,254.982 194.531 L 256.163 190.234 235.704 169.727 C 224.452 158.447,214.979 149.219,214.654 149.219 C 214.329 149.219,214.063 173.819,214.063 203.886 L 214.062 258.554 216.289 259.705 C 242.494 273.256,230.770 315.234,200.781 315.234 C 170.478 315.234,159.049 276.241,184.637 260.156 L 188.987 257.422 189.025 202.181 L 189.063 146.941 185.570 144.894 C 174.223 138.245,168.457 124.879,171.437 112.141 L 172.710 106.704 150.227 84.211 C 137.862 71.840,127.383 61.719,126.942 61.719 C 124.953 61.719,4.133 183.984,2.262 187.891 C -0.456 193.565,-0.462 205.633,2.251 211.328 C 4.993 217.083,182.906 394.993,188.672 397.745 C 194.355 400.457,206.424 400.458,212.109 397.746 C 217.869 394.999,394.999 217.869,397.746 212.109 C 400.458 206.424,400.457 194.354,397.745 188.672 C 394.995 182.912,217.087 5.004,211.328 2.256 C 206.509 -0.044,195.161 -0.647,190.440 1.146 " stroke="none" fill="#000000" fill-rule="evenodd"></path></g></svg>